<svg width="20" height="20" viewBox="0 0 16 16" fill="none" xmlns="http://www.w3.org/2000/svg">
<path d="M6.31563 10.2719C6.31563 10.925 5.975 11.9937 5.16875 11.9937C4.3625 11.9937 4.02187 10.925 4.02187 10.2719C4.02187 9.61875 4.3625 8.55 5.16875 8.55C5.975 8.55 6.31563 9.61875 6.31563 10.2719ZM15.5 8.69375C15.5 9.69063 15.4 10.7469 14.9531 11.6625C13.7687 14.0563 10.5125 14 8.18125 14C5.8125 14 2.3625 14.0844 1.13125 11.6625C0.675 10.7563 0.5 9.69063 0.5 8.69375C0.5 7.38438 0.934375 6.14688 1.79688 5.14375C1.63438 4.65 1.55625 4.13125 1.55625 3.61875C1.55625 2.94688 1.70938 2.60938 2.0125 2C3.42813 2 4.33437 2.28125 5.4125 3.125C6.31875 2.90937 7.25 2.8125 8.18437 2.8125C9.02812 2.8125 9.87812 2.90312 10.6969 3.1C11.7594 2.26562 12.6656 2 14.0656 2C14.3719 2.60938 14.5219 2.94688 14.5219 3.61875C14.5219 4.13125 14.4406 4.64062 14.2812 5.125C15.1406 6.1375 15.5 7.38438 15.5 8.69375ZM13.4906 10.2719C13.4906 8.9 12.6563 7.69063 11.1938 7.69063C10.6031 7.69063 10.0375 7.79688 9.44375 7.87813C8.97813 7.95 8.5125 7.97813 8.03438 7.97813C7.55938 7.97813 7.09375 7.95 6.625 7.87813C6.04062 7.79688 5.46875 7.69063 4.875 7.69063C3.4125 7.69063 2.57812 8.9 2.57812 10.2719C2.57812 13.0156 5.09062 13.4375 7.27812 13.4375H8.78438C10.9813 13.4375 13.4906 13.0188 13.4906 10.2719ZM10.9094 8.55C10.1031 8.55 9.7625 9.61875 9.7625 10.2719C9.7625 10.925 10.1031 11.9937 10.9094 11.9937C11.7156 11.9937 12.0562 10.925 12.0562 10.2719C12.0562 9.61875 11.7156 8.55 10.9094 8.55Z" fill="#BBBBBB"/>
</svg>
